
<svg width="279px" height="61px" viewBox="0 0 279 61" version="1.1" xmlns="http://www.w3.org/2000/svg" xmlns:xlink="http://www.w3.org/1999/xlink">
    <g id="SVG-EXPORTS" stroke="none" stroke-width="1" fill="none" fill-rule="evenodd">
        <g id="HYKW_Music-CoverLogo" transform="translate(102.000000, 1.000000)">
            <g id="Group" fill="#007BB8" fill-rule="nonzero">
                <path d="M6.69050199,11.0294591 C6.69050199,10.3653806 6.73666787,9.49533122 6.73666787,8.21334012 L6.73666787,6.72892939 L2.59239196,6.72892939 L2.59239196,8.14941813 C2.59239196,9.47757511 2.59239196,10.3937903 2.62435296,11.0259078 L0,11.0259078 C0,10.2659464 0.0461658842,9.60541909 0.0461658842,7.40721276 L0.0461658842,3.8559909 C0.0461658842,1.55124791 0.0461658842,1.10734518 0.0461658842,0.30476904 L2.65276273,0.30476904 C2.65276273,0.858759651 2.60659685,1.74301389 2.60659685,2.99304399 L2.60659685,4.50941572 L6.73311665,4.50941572 L6.73311665,3.14219531 C6.73311665,1.65423335 6.69050199,0.897823091 6.69050199,0.326076371 L9.31485494,0.326076371 C9.29709883,1.03632074 9.26513784,1.76432123 9.26513784,3.96252756 L9.26513784,7.45692987 C9.26513784,9.51308733 9.29709883,10.3334196 9.31485494,11.0294591 L6.69050199,11.0294591 Z" id="Shape"></path>
                <path d="M18.871193,11.0294591 L12.3440472,11.0294591 C12.3902131,10.3014586 12.3902131,9.0052626 12.3902131,7.12311501 L12.3902131,4.09392277 C12.3902131,2.11944341 12.3582521,0.979501194 12.3440472,0.315422706 L18.6332611,0.315422706 L18.6652221,2.40354116 C18.0828217,2.40354116 17.4968701,2.35737528 16.3569279,2.35737528 L14.9364391,2.35737528 L14.9364391,4.71183537 L16.4244011,4.71183537 C17.1985675,4.71183537 17.766763,4.71183537 18.4628025,4.67987437 L18.3846756,6.59043173 C17.766763,6.59043173 17.2944505,6.56202196 16.4883231,6.56202196 L14.918683,6.56202196 L14.918683,8.99460893 L16.5486939,8.99460893 C17.7170459,8.99460893 18.3243048,8.94844305 18.9493199,8.91648205 L18.871193,11.0294591 Z" id="Shape"></path>
                <path d="M27.8628867,11.0294591 L21.4706874,11.0294591 C21.5026484,10.3014586 21.5346094,8.84545762 21.5346094,7.12311501 L21.5346094,4.3425083 C21.5346094,2.13009708 21.5346094,1.16416473 21.5026484,0.326076371 L24.1270013,0.326076371 C24.0914891,1.3701356 24.0914891,2.38223383 24.0914891,3.49021505 L24.0914891,8.87741861 L25.6717828,8.87741861 C26.5240761,8.87741861 27.3763693,8.84545762 27.948116,8.81704784 L27.8628867,11.0294591 Z" id="Shape"></path>
                <path d="M33.5235344,7.36104688 L32.49368,7.36104688 C32.49368,9.19347736 32.49368,10.1274487 32.557602,11.0294591 L29.9190442,11.0294591 C29.9190442,10.3192147 29.9652101,8.86321373 29.9652101,7.28292 L29.9652101,4.15429354 C29.9652101,2.35027283 29.9652101,1.14995984 29.9332491,0.326076371 C31.1335621,0.326076371 32.4794751,0.326076371 33.8395931,0.326076371 C36.2437703,0.326076371 37.7743469,1.3381746 37.7743469,3.6287127 C37.7885518,5.70262627 36.2721801,7.36104688 33.5235344,7.36104688 Z M33.4596124,2.25438984 C33.1577585,2.25438984 32.749368,2.25438984 32.49368,2.25438984 L32.49368,5.3510553 L33.4098953,5.3510553 C34.5498375,5.3510553 35.245877,4.76865492 35.245877,3.70683958 C35.245877,2.64502425 34.5498375,2.25438984 33.4596124,2.25438984 Z" id="Shape"></path>
                <path d="M51.3506681,3.8062738 C50.8605995,4.76865492 50.0544721,6.39866575 49.5963645,7.32908588 L49.5963645,8.48323299 C49.5963645,9.41720434 49.6247743,10.2588439 49.6425304,11.0294591 L46.9720116,11.0294591 C47.0039726,10.5216343 47.0359336,9.55925321 47.0359336,8.5009891 L47.0359336,7.34684199 C46.5600698,6.34894865 45.8320693,4.8787428 45.2603226,3.67842981 C44.6140002,2.33606794 43.9641266,0.943988975 43.6480679,0.326076371 L46.5245576,0.326076371 L48.2397978,4.69052804 C48.3152744,4.89240156 48.3781337,5.09877009 48.4280125,5.30844064 L48.4280125,5.30844064 C48.4831862,5.0982179 48.5519887,4.89181046 48.6339834,4.69052804 L50.4486578,0.326076371 L53.0907668,0.326076371 C52.6788251,1.13220373 51.9650295,2.57399981 51.3506681,3.8062738 Z" id="Shape"></path>
                <path d="M59.0142049,11.2673909 C55.8536174,11.2673909 53.8152161,9.05142848 53.8152161,5.78075315 C53.8152161,2.38223383 55.9637053,0.0987981724 59.2343806,0.0987981724 C62.3168412,0.0987981724 64.3090767,2.2472874 64.3090767,5.59964084 C64.3090767,8.95199427 62.1925485,11.2673909 59.0142049,11.2673909 Z M59.0923318,2.25438984 C57.607921,2.25438984 56.4857349,3.53638093 56.4857349,5.73458727 C56.4857349,7.86532038 57.5511015,9.14731147 59.063922,9.14731147 C60.4524497,9.14731147 61.6385578,7.97895948 61.6385578,5.76654826 C61.6385578,3.55413704 60.5483327,2.25438984 59.0923318,2.25438984 Z" id="Shape"></path>
                <path d="M75.5842061,2.67343402 L75.5842061,6.41287064 C75.5842061,9.5734581 74.0216685,11.2496348 71.0031299,11.2496348 C68.218972,11.2496348 66.6848441,9.79718507 66.6848441,6.52295852 L66.6848441,2.77641946 C66.6848441,1.78207733 66.6848441,1.00080853 66.6564343,0.326076371 L69.3091971,0.326076371 C69.3091971,0.865862094 69.2488263,1.81403833 69.2488263,2.77641946 L69.2488263,6.61884151 C69.2488263,8.21334012 69.9093536,9.0372236 71.1593837,9.0372236 C72.2496088,9.0372236 73.0415312,8.40510611 73.0415312,6.66500739 L73.0415312,2.71604868 C73.0415312,1.82824322 73.0095702,0.816144988 72.9918141,0.326076371 L75.6161671,0.326076371 C75.5842061,0.897823091 75.5842061,1.76432123 75.5842061,2.67343402 Z" id="Shape"></path>
                <path d="M84.1284459,11.0294591 C83.5744553,10.0315657 82.4203082,7.9008326 81.9622006,6.98106614 L81.0779463,6.98106614 C81.0779463,8.84545762 81.1099073,10.1274487 81.1418683,11.0294591 L78.4997592,11.0294591 C78.4997592,10.1452048 78.5494763,9.25384813 78.5494763,7.41076398 L78.5494763,4.07261543 C78.5494763,2.11234097 78.5494763,1.18192084 78.4997592,0.326076371 C79.9557602,0.326076371 81.6638979,0.326076371 82.7612255,0.326076371 C85.4956663,0.326076371 86.3657157,1.62227235 86.3657157,3.29844907 C86.3989068,4.65876137 85.5577275,5.88762701 84.2775972,6.34894865 C85.0872758,7.76943739 86.3799205,9.90017051 87.1185747,11.0436639 L84.1284459,11.0294591 Z M82.1539665,2.20822396 C81.8521127,2.20822396 81.3158782,2.20822396 81.0886,2.20822396 L81.0886,5.04920145 L82.1539665,5.04920145 C83.0382208,5.04920145 83.7839774,4.54137672 83.7839774,3.5789956 C83.7520164,2.71604868 83.2583965,2.20822396 82.1539665,2.20822396 Z" id="Shape"></path>
                <path d="M99.5869147,11.0294591 L96.7246298,6.28502665 C96.6137719,6.10414774 96.5187205,5.91404484 96.4405321,5.71683116 L96.4405321,11.0436639 L93.862345,11.0436639 C93.862345,10.3334196 93.894306,9.0052626 93.894306,7.09115402 L93.894306,4.49876206 C93.894306,2.42839971 93.894306,1.00791097 93.862345,0.326076371 L96.4405321,0.326076371 L96.4405321,5.57478228 C96.5228405,5.37687522 96.6226719,5.1867203 96.7388347,5.00658678 L99.5371975,0.326076371 L102.637414,0.326076371 C101.767365,1.60806746 100.059227,4.09392277 99.1572168,5.43273341 C100.027266,6.82481238 101.625316,9.30711646 102.871795,11.0294591 L99.5869147,11.0294591 Z" id="Shape"></path>
                <path d="M107.438666,4.23242042 L107.438666,6.96686125 C107.438666,9.16506758 107.470627,10.1913707 107.488383,11.0294591 L104.86403,11.0294591 C104.86403,10.2694976 104.895991,9.06918459 104.895991,7.03078325 L104.895991,4.24662531 C104.895991,2.11589219 104.878235,1.02211586 104.846274,0.340281259 L107.502588,0.340281259 C107.470627,1.03987197 107.438666,2.14430196 107.438666,4.23242042 Z" id="Shape"></path>
                <path d="M114.079451,11.0294591 L110.506922,11.0294591 C110.538883,10.3192147 110.567293,9.32132135 110.567293,7.23320289 L110.567293,4.07261543 C110.567293,2.09813608 110.567293,0.958193863 110.521127,0.326076371 C111.849284,0.326076371 113.791802,0.326076371 114.487842,0.326076371 C118.039063,0.326076371 119.956723,2.03421409 119.956723,5.55702617 C119.974479,8.87741861 117.570302,11.0294591 114.079451,11.0294591 Z M114.345793,2.36802894 C113.965812,2.36802894 113.461538,2.36802894 113.099314,2.36802894 L113.099314,9.00881382 L114.253461,9.00881382 C116.181774,9.00881382 117.364331,7.64869585 117.364331,5.60674328 C117.364331,3.44049794 116.195979,2.36802894 114.345793,2.36802894 Z" id="Shape"></path>
                <path d="M124.697604,11.2673909 C123.711886,11.2526509 122.741665,11.0197978 121.856627,10.5855563 L122.062598,8.27726212 C122.789881,8.89202576 123.703213,9.24359579 124.65499,9.27515546 C125.58541,9.27515546 126.015108,8.72116485 126.015108,8.07129125 C126.015108,7.42141765 125.571205,7.09115402 124.239497,6.54071463 C122.38931,5.76654826 121.948959,4.78641103 121.948959,3.53638093 C121.948959,1.52994058 123.497291,0.0916957287 125.78783,0.0916957287 C126.707195,0.0795068402 127.620181,0.245942865 128.476104,0.581764345 L128.064163,2.82613656 C127.456314,2.37267251 126.720156,2.1239704 125.961839,2.11589219 C125.187673,2.11589219 124.605273,2.59175592 124.605273,3.2877954 C124.605273,3.98383489 124.903575,4.29989363 126.245937,4.80416714 C128.003792,5.46824563 128.838329,6.33829498 128.838329,7.77653984 C128.852534,9.71550697 127.400084,11.2673909 124.697604,11.2673909 Z" id="Shape"></path>
                <path d="M148.327435,5.47889929 C147.695317,7.83691061 147.173288,9.85755585 146.874985,11.0614201 L144.168954,11.0614201 L142.496328,4.31409852 C142.416832,3.92324506 142.369326,3.52656243 142.35428,3.12799042 L142.322319,3.12799042 C142.295298,3.52142941 142.237113,3.91210528 142.148309,4.29634241 L140.298122,11.0791762 L137.783857,11.0791762 C137.467798,9.78298019 137.027447,8.29501823 136.235524,5.37236264 C135.52528,2.77997068 135.113338,1.27780383 134.843445,0.343832481 L137.684423,0.343832481 L139.200795,7.19058823 C139.263776,7.57754011 139.306449,7.96752484 139.328638,8.35894022 L139.360599,8.35894022 C139.381772,7.95903785 139.440026,7.56196465 139.534609,7.17283212 L141.416757,0.343832481 L143.661129,0.343832481 L145.397677,7.250959 C145.482428,7.6102527 145.535896,7.97621278 145.557482,8.34473533 L145.589443,8.34473533 C145.613357,7.96219986 145.660796,7.5814992 145.731492,7.20479312 L147.233658,0.343832481 L149.762128,0.343832481 C149.449621,1.4020966 148.977308,3.0605172 148.327435,5.47889929 Z" id="Shape"></path>
                <path d="M154.378717,4.23242042 L154.378717,6.96686125 C154.378717,9.16506758 154.410678,10.1913707 154.428434,11.0294591 L151.804081,11.0294591 C151.804081,10.2694976 151.836042,9.06918459 151.836042,7.03078325 L151.836042,4.24662531 C151.836042,2.11589219 151.818286,1.02211586 151.786325,0.340281259 L154.442639,0.340281259 C154.421331,1.03987197 154.378717,2.14430196 154.378717,4.23242042 Z" id="Shape"></path>
                <path d="M162.96202,2.47811682 L161.825629,2.47811682 L161.825629,6.99882225 C161.825629,8.56135987 161.825629,10.0954877 161.871795,11.0294591 L159.261647,11.0294591 C159.293608,10.1594097 159.311364,8.48323299 159.311364,6.96686125 L159.311364,2.47811682 L158.267305,2.47811682 C157.525099,2.47811682 156.907187,2.47811682 156.417118,2.51007782 L156.449079,0.326076371 L164.812207,0.326076371 L164.812207,2.51007782 C164.322138,2.49232171 163.672264,2.47811682 162.96202,2.47811682 Z" id="Shape"></path>
                <path d="M173.473637,11.0294591 C173.473637,10.3653806 173.519803,9.49533122 173.519803,8.21334012 L173.519803,6.72892939 L169.379078,6.72892939 L169.379078,8.14941813 C169.379078,9.47757511 169.379078,10.3937903 169.411039,11.0259078 L166.786686,11.0259078 C166.786686,10.2659464 166.832852,9.60541909 166.832852,7.40721276 L166.832852,3.8559909 C166.832852,1.55124791 166.832852,1.10734518 166.832852,0.30476904 L169.439449,0.30476904 C169.439449,0.858759651 169.393283,1.74301389 169.393283,2.99304399 L169.393283,4.50941572 L173.534007,4.50941572 L173.534007,3.14219531 C173.534007,1.65423335 173.502046,0.880066982 173.487842,0.326076371 L176.083785,0.326076371 C176.083785,1.03632074 176.037619,1.76432123 176.037619,3.96252756 L176.037619,7.45692987 C176.037619,9.51308733 176.06958,10.3334196 176.083785,11.0294591 L173.473637,11.0294591 Z" id="Shape"></path>
            </g>
            <path d="M0.0461658842,58.3317343 L176.208078,58.3317343" id="Shape" stroke="#006DA6"></path>
            <path d="M0.0461658842,19.4280988 L176.208078,19.4280988" id="Shape" stroke="#006DA6"></path>
            <path d="M0.0461658842,48.6049376 L176.208078,48.6049376" id="Shape" stroke="#006DA6"></path>
            <path d="M0.0461658842,38.8816921 L176.208078,38.8816921" id="Shape" stroke="#006DA6"></path>
            <path d="M0.0461658842,29.1548954 L176.208078,29.1548954" id="Shape" stroke="#006DA6"></path>
            <g id="Group" transform="translate(0.000000, 18.558049)" fill-rule="nonzero">
                <path d="M162.333454,0.926868906 C169.76261,0.926868906 174.76273,4.23660768 174.76273,7.90501986 C174.76273,9.68063079 173.601481,10.948417 171.989226,10.948417 C169.393283,10.948417 168.857048,8.88870832 168.320814,6.74377031 C167.784579,4.77284218 166.900325,3.07180691 162.415132,3.07180691 C154.360961,3.07180691 150.600217,8.79992777 150.600217,19.0913687 C150.600217,28.5766823 153.643614,37.2594198 163.384615,37.2594198 C169.112736,37.2594198 172.869929,34.3935837 174.393403,29.3828097 L176.364331,29.3828097 C174.41471,36.0058384 169.137595,39.5854701 161.523775,39.5854701 C151.225232,39.5854701 143.355724,31.8899723 143.355724,20.6148429 C143.362827,9.51727459 151.505778,0.926868906 162.333454,0.926868906 Z" id="Shape" fill="#BE548E"></path>
                <path d="M132.957746,9.56344047 C130.919345,9.56344047 127.410738,11.3177441 124.108102,17.638919 L125.723908,17.638919 C126.988143,15.1814735 129.797159,11.8149151 131.551463,11.8149151 C131.901441,11.8058024 132.238861,11.9455575 132.479901,12.1994618 C132.720941,12.4533661 132.842979,12.7975913 132.815698,13.1466233 C132.815698,13.8568677 132.6772,14.2119899 131.395209,17.6424702 L126.77862,30.1427712 C126.423498,31.2081377 125.58541,33.2998074 125.58541,35.0576622 C125.58541,38.9178404 128.390875,39.6209823 129.65511,39.6209823 C133.376791,39.6209823 136.888949,34.9156133 138.856326,31.1229084 L137.169496,31.1229084 C135.766763,33.7934272 133.167269,37.0925123 131.199892,37.0925123 C130.844769,37.0925123 129.65511,36.8829902 129.65511,35.1961599 C129.65511,33.9319249 130.851872,30.8423619 131.483989,29.1590827 L134.783075,20.2419646 C135.848441,17.3619237 136.608403,15.3945468 136.608403,13.5692187 C136.608403,11.3212953 135.187914,9.56699169 132.957746,9.56699169" id="Shape" fill="#EAB818"></path>
                <path d="M134.672987,5.09955459 C135.770716,5.65744787 137.112867,5.22009965 137.67117,4.12257846 C138.229472,3.02505727 137.792624,1.68274274 136.695311,1.1240313 C135.597998,0.565319864 134.255521,1.00166743 133.696401,2.09877212 C133.427635,2.62614423 133.379543,3.2387285 133.56272,3.80158088 C133.745897,4.36443326 134.145314,4.8313784 134.672987,5.09955459" id="Shape" fill="#EAB818"></path>
                <path d="M65.9284339,0.284097749 C67.7608643,0.284097749 70.1472854,1.47375707 70.1472854,4.68406163 C70.1472854,6.42771157 69.5045143,7.88016131 67.9455279,12.5713254 L62.9027928,27.6071987 C61.9865776,30.1747322 61.1591429,32.2841579 61.1591429,33.8431443 C61.1591429,35.9525701 62.3523534,36.7764536 63.8190081,36.7764536 C68.9540749,36.7764536 77.1147827,24.2157819 84.2669435,0.926868906 L89.5937763,0.926868906 L81.8023956,26.5986517 C79.9664139,32.557602 79.8776333,33.566149 79.8776333,34.2089202 C79.8776333,35.1251354 80.2327555,36.4106777 81.7100638,36.4106777 C83.2690502,36.4106777 85.5595883,35.2174672 88.2194535,28.9815216 L90.0554352,28.9815216 C88.404117,33.6584808 85.0837246,39.5250993 79.7853016,39.5250993 C76.8484411,39.5250993 75.3817864,37.7850006 75.3817864,34.6670278 C75.3817864,31.4709281 76.8484411,26.9644276 77.8676417,23.2072349 C75.8469965,27.9729746 69.5222704,39.5428554 62.2777778,39.5428554 C58.7940291,39.5428554 56.2407006,37.2523173 56.2407006,33.4027928 C56.2407006,31.0163717 56.9758035,28.5411701 58.1654629,25.1497532 L63.3928614,10.2026604 C64.4937402,6.9035753 65.0441796,5.52925244 65.0441796,4.97881305 C65.0441796,4.05904659 64.6890574,3.41982665 63.8509691,3.41982665 C62.3843144,3.41982665 60.2748886,5.15992536 57.6150235,11.0300951 L55.5091489,11.0300951 C57.9523896,4.68406163 62.089563,0.284097749 65.9284339,0.284097749 Z" id="Shape" fill="#7365A6"></path>
                <path d="M11.797159,0.866498134 L26.0020465,32.8949681 L40.0897436,0.866498134 L52.0111954,0.866498134 L52.0111954,2.15204045 L50.8428434,2.15204045 C45.8178645,2.15204045 45.3491032,2.32605032 45.3491032,9.28289394 L45.3491032,31.0270254 C45.3491032,37.5719273 45.9350548,38.2750692 50.6084627,38.2750692 L52.0289515,38.2750692 L52.0289515,39.5606115 L33.4844709,39.5606115 L33.4844709,38.2750692 L34.5924521,38.2750692 C39.2090406,38.2750692 39.7381726,37.5151077 39.7381726,31.0270254 L39.7381726,4.60593475 L24.4217527,39.5606115 L23.0793909,39.5606115 L7.64578067,4.60593475 L7.64578067,30.8494643 C7.64578067,35.5867943 9.40008427,37.9234983 13.8426628,38.2750692 L13.8426628,39.5606115 L0.0497171061,39.5606115 L0.0497171061,38.2750692 C4.19754424,37.919947 6.24304803,35.934814 6.24304803,30.5582641 L6.24304803,9.16570362 C6.24304803,2.38286987 5.77783797,2.15204045 0.866498134,2.15204045 L0.0497171061,2.15204045 L0.0497171061,0.866498134 L11.797159,0.866498134 Z" id="Shape" fill="#6DB7CC"></path>
                <path d="M105.435777,0.237931865 C109.207175,0.237931865 111.977128,1.53412784 114.452329,4.36090045 C115.287453,3.39748611 115.819859,2.20914653 115.982906,0.944625015 L117.222282,0.944625015 L117.222282,11.140183 L115.982906,11.140183 C114.207295,4.18689057 109.679487,1.65131817 105.613338,1.65131817 C101.252438,1.65131817 98.8944264,4.53846154 98.8944264,7.603166 C98.8944264,12.1984471 103.432888,14.3220778 108.383291,16.4421572 C114.981461,19.2831347 120.638558,21.6269411 120.638558,29.4076682 C120.638558,35.2991453 116.74997,40.6614903 108.383291,40.6614903 C104.261277,40.6970793 100.334811,38.9067668 97.6586012,35.7714578 C97.1862887,36.4213314 96.6536054,37.422776 96.2381124,39.5428554 L94.8176237,39.5428554 L94.8176237,26.9928374 L96.2381124,26.9928374 C97.7118695,34.7096425 101.600457,39.248104 107.847057,39.248104 C113.152582,39.248104 116.512038,35.6542675 116.512038,31.644938 C116.512038,26.6377152 111.913206,24.5744553 107.023173,22.4543758 C101.252438,19.9827254 95.1159263,17.2695919 95.1159263,9.90080655 C95.1159263,4.7763934 99.0222704,0.237931865 105.435777,0.237931865 Z" id="Shape" fill="#B6CA40"></path>
            </g>
        </g>
        <g id="ui_dk_logo_top_banner" fill-rule="nonzero">
            <g id="CMYK">
                <path d="M87.4467516,8.27076433 L85.1792357,8.27076433 L85.1792357,5.08490446 L84.0454777,5.03388535 L83.416242,5.0055414 C81.3632191,4.93566262 79.3288608,4.59056529 77.3676433,3.97949045 C76.6193631,3.77541401 75.6103185,3.46929936 74.4425478,3.10649682 C70.2533121,1.81968153 64.5278344,0.0623566879 60.7127389,0.0623566879 C53.830828,0.0623566879 48.3774522,2.23917197 44.4773248,6.53044586 C40.5488535,2.23917197 35.0898089,0.0623566879 28.2078981,0.0623566879 C24.3928025,0.0623566879 18.6673248,1.81968153 14.483758,3.10649682 C13.35,3.45229299 12.3012739,3.77541401 11.5529936,3.97949045 C9.59177618,4.59056529 7.55741787,4.93566262 5.5043949,5.0055414 L4.88082803,5.03388535 L3.74707006,5.08490446 L3.74707006,8.27076433 L0.238089172,8.27076433 L0.238089172,60.2308917 L1.40585987,60.2705732 L3.54299363,60.3442675 L4.25726115,60.3442675 C8.87165605,60.3442675 13.5257325,58.9270701 18.0267516,57.5608917 C21.8078344,56.4271338 25.3961783,55.3273885 28.2305732,55.3273885 L28.343949,55.3273885 L28.9958599,55.3273885 C33.2119419,55.2629325 37.2733087,56.9140776 40.2484076,59.9021019 L40.6055414,60.2649045 L48.2980892,60.2649045 L48.6552229,59.9021019 C51.6263556,56.9179313 55.6800962,55.2653468 59.8907643,55.3217197 L60.5483439,55.3217197 L60.6843949,55.3217197 C63.5187898,55.3217197 67.0844586,56.4101274 70.8882166,57.5552229 C75.4232484,58.9214013 80.0433121,60.3385987 84.657707,60.3385987 L85.3719745,60.3385987 L87.5091083,60.2649045 L88.676879,60.2252229 L88.676879,8.27076433 L87.4467516,8.27076433 Z" id="Shape" fill="#FFFFFF"></path>
                <path d="M83.9604459,9.4555414 L83.9604459,6.24133758 L83.336879,6.21299363 C81.1939773,6.13881702 79.0704107,5.78044132 77.0218471,5.14726115 C76.2622293,4.94318471 75.2418471,4.62573248 74.0627389,4.26292994 C69.9528662,3.0044586 64.323758,1.27547771 60.6843949,1.27547771 C53.8194904,1.27547771 48.4681529,3.54299363 44.7721019,7.99866242 L44.4489809,8.38980892 C44.3015924,8.20840764 44.1655414,8.05535032 44.1201911,7.99866242 C40.4298089,3.53732484 35.0501274,1.27547771 28.2078981,1.27547771 C24.568535,1.27547771 18.9450955,3.0044586 14.8352229,4.26292994 C13.6504459,4.62573248 12.6300637,4.94318471 11.8704459,5.14726115 C9.82370573,5.77994729 7.70207798,6.13831748 5.5610828,6.21299363 L4.93184713,6.24133758 L4.93184713,9.4555414 L1.4455414,9.4555414 L1.4455414,59.0347771 L3.58267516,59.1028025 C8.21974522,59.2558599 13.026879,57.7989809 17.6752866,56.3874522 C21.5414013,55.2140127 25.1977707,54.1199363 28.2078981,54.1199363 L28.2985987,54.1199363 C33.0783516,53.8701422 37.7374096,55.6727171 41.1043949,59.0744586 L47.7935669,59.0744586 C51.157179,55.6711298 55.8152925,53.8681221 60.5936943,54.1199363 L60.6843949,54.1199363 C63.7001911,54.1199363 67.3508917,55.2536943 71.2226752,56.3874522 C75.865414,57.7989809 80.6725478,59.2558599 85.3096178,59.1028025 L87.4467516,59.0347771 L87.4467516,9.4555414 L83.9604459,9.4555414 Z M42.5782803,56.9770064 C41.2158454,55.7911679 39.7161396,54.7729666 38.1112739,53.9442038 C35.0772137,52.2978945 31.6503147,51.5137071 28.2022293,51.6766879 L28.2022293,51.6766879 C24.9086624,51.6766879 21.1219108,52.8104459 17.1140764,54.046242 C12.8398089,55.3443949 8.41248408,56.6935669 4.26859873,56.6935669 L3.6166879,56.6935669 L3.6166879,11.7570701 L4.93184713,11.7570701 L4.93184713,55.3217197 C8.70159236,55.1913376 12.783121,53.9498726 16.7399363,52.7480892 C20.8384713,51.5009554 24.7102548,50.3218471 28.1965605,50.3218471 C31.8815367,50.1497897 35.5433972,50.9888027 38.7858599,52.7480892 C40.6839348,53.7691223 42.324128,55.2096229 43.5816561,56.96 L42.5782803,56.9770064 Z M28.9731847,48.8309554 L28.1228662,48.8309554 C24.3757962,48.8536306 20.4076433,50.0667516 16.1787261,51.3535669 C12.8341401,52.3682803 9.37617834,53.4113376 6.24133758,53.7457962 L6.24133758,11.5189809 L6.24133758,11.5189809 L6.24133758,7.49414013 C8.2666773,7.36872103 10.2702107,7.00530709 12.2105732,6.41140127 C12.9928662,6.20165605 14.024586,5.88420382 15.2207006,5.51573248 C19.0187898,4.34796178 24.7669427,2.60197452 28.2078981,2.60197452 C34.6646497,2.60197452 39.6815287,4.68808917 43.1111465,8.83764331 C43.1961783,8.93968153 43.4626115,9.24012739 43.6780255,9.50656051 L43.6780255,9.50656051 C43.825414,9.71630573 44.0748408,10.0734395 44.4603185,10.7593631 C44.6999818,10.3289508 44.9610738,9.91082505 45.2426115,9.50656051 L45.2426115,9.50656051 C45.4353503,9.24012739 45.7017834,8.93968153 45.8094904,8.83764331 C49.2107643,4.68808917 54.2503185,2.60197452 60.7070701,2.60197452 C64.1480255,2.60197452 69.8961783,4.36496815 73.6999363,5.53273885 C74.8903822,5.90121019 75.9221019,6.21866242 76.7043949,6.42840764 C78.644869,7.0218539 80.6483478,7.38525794 82.6736306,7.5111465 L82.6736306,11.5359873 L82.6736306,11.5359873 L82.6736306,53.7628025 C79.5161146,53.4283439 76.080828,52.3852866 72.7419108,51.3705732 C68.5129936,50.083758 64.5164968,48.8706369 60.7524204,48.8592994 C54.7034139,48.5786324 48.8086734,50.8178948 44.4716561,55.043949 C40.3423506,51.011291 34.7844032,48.7775138 29.0128662,48.8309554 L28.9731847,48.8309554 Z M85.2359236,56.6652229 L84.5783439,56.6652229 C80.4344586,56.6652229 76.0128025,55.316051 71.7328662,54.0178981 C67.7250318,52.7991083 63.943949,51.6483439 60.6447134,51.6483439 L60.6447134,51.6483439 C57.196628,51.4853632 53.769729,52.2695506 50.7356688,53.9158599 C49.1224265,54.7452445 47.613406,55.76331 46.2403185,56.9486624 L45.2369427,56.9486624 C46.5684267,55.2434629 48.2183436,53.8130215 50.0950955,52.7367516 C53.3351698,50.9765688 56.9954694,50.1374642 60.6787261,50.3105096 C64.1707006,50.3105096 68.0481529,51.4896178 72.1410191,52.7367516 C76.109172,53.938535 80.1793631,55.18 83.9491083,55.3103822 L83.9491083,11.7570701 L85.2585987,11.7570701 L85.2359236,56.6652229 Z" id="Shape" fill="#000000"></path>
                <path d="M28.2078981,24.3361146 C24.7726115,24.3361146 20.9235032,25.5038854 16.8703185,26.7453503 L16.7796178,26.7453503 L16.7796178,27.2725478 L17.017707,27.1988535 C21.0595541,25.9687261 24.8746497,24.812293 28.236242,24.812293 C31.0901941,24.6876005 33.9367405,25.190729 36.5750318,26.2861783 C36.5750318,26.0991083 36.5750318,25.917707 36.5750318,25.7192994 C33.9169362,24.6653991 31.0637528,24.1937346 28.2078981,24.3361146 L28.2078981,24.3361146 Z" id="Shape" fill="#222221"></path>
                <path d="M78.0875796,9.86369427 L78.0875796,10.3738854 C78.6147771,10.4985987 79.1419745,10.6176433 79.6635032,10.7196815 L79.6635032,28.7974522 C77.1408917,28.2929299 74.5615924,27.5049682 72.0389809,26.7453503 C68.1615287,25.566242 64.4824841,24.4494904 61.1889172,24.3474522 L61.6821019,24.8746497 C64.7885987,25.0730573 68.2465605,26.1217834 71.8859236,27.2271975 C74.436879,28.0038217 77.078535,28.803121 79.6521656,29.3133121 L79.6521656,48.7402548 C79.8052229,48.813949 79.9582803,48.8819745 80.1113376,48.9386624 L80.1566879,48.9386624 L80.1566879,10.3058599 L79.9469427,10.2661783 C79.2893631,10.141465 78.6204459,9.99407643 77.9515287,9.82968153 L78.0195541,9.82968153 L78.0875796,9.86369427 Z" id="Shape" fill="#222221"></path>
                <path d="M72.6228662,47.844586 L72.5945223,47.844586 C72.3961146,47.6461783 72.1807006,47.4024204 71.953949,47.1303185 C67.9121019,45.9058599 64.0913376,44.7494268 60.6900637,44.7494268 L59.8907643,44.7494268 C59.6337792,44.7494268 59.3786837,44.7494268 59.1254777,44.7494268 L59.1254777,45.2482803 L59.8907643,45.2482803 L60.6843949,45.2482803 C64.0403185,45.2482803 67.855414,46.4103822 71.8972611,47.6348408 L72.6228662,47.844586 Z" id="Shape" fill="#222221"></path>
                <path d="M59.9644586,6.23566879 L60.6843949,6.23566879 C63.6718471,6.23566879 67.0164331,7.15401274 70.5650955,8.21974522 L70.5650955,7.70388535 C67.0334395,6.64949045 63.7001911,5.74248408 60.6900637,5.74248408 L59.9644586,5.74248408 C59.6753503,5.74248408 59.3975796,5.74248408 59.1084713,5.74248408 L59.1084713,6.24700637 C59.3919108,6.24133758 59.6753503,6.23566879 59.9644586,6.23566879 Z" id="Shape" fill="#222221"></path>
                <path d="M47.2833758,48.7459236 L47.2833758,48.7459236 C47.2833758,48.7459236 47.4817834,48.5815287 47.7652229,48.303758 L47.7652229,29.0298726 C48.6521934,28.3211676 49.6007703,27.6932096 50.5996178,27.1535032 L50.5996178,26.5866242 C49.6044078,27.1064865 48.6560693,27.7115265 47.7652229,28.3949682 L47.7652229,11.7173885 L47.5838217,11.8817834 C47.493121,11.9611465 47.4250955,12.029172 47.3740764,12.0688535 L47.2607006,12.1595541 L47.2833758,48.7459236 Z" id="Shape" fill="#222221"></path>
                <path d="M25.5549045,6.09961783 C26.3266926,6.09977782 27.0975631,6.15281068 27.8621019,6.25834395 L28.2135669,6.25834395 L28.9278344,6.25834395 C33.6782803,6.25834395 37.5500637,7.95898089 41.1043949,11.5643312 L41.1043949,20.0675159 C41.3310638,21.1517973 41.4994792,22.2474439 41.6089172,23.3497452 L41.6089172,11.3319108 L41.5352229,11.2582166 C37.9128662,7.53949045 33.7859873,5.7311465 28.910828,5.7311465 L28.1908917,5.7311465 C26.8905314,5.74851273 25.5945061,5.8851362 24.3191083,6.13929936 C24.5458599,6.13929936 24.7612739,6.10528662 24.9766879,6.09961783 L25.5549045,6.09961783 Z" id="Shape" fill="#222221"></path>
                <path d="M8.72426752,49.086051 L8.75828025,49.086051 C8.92239184,48.9872518 9.07959135,48.8774015 9.22878981,48.7572611 L9.22878981,29.3133121 C10.1924841,29.1205732 11.1618471,28.8881529 12.136879,28.6330573 L12.136879,28.1115287 C11.1618471,28.372293 10.1924841,28.6047134 9.22878981,28.7974522 L9.22878981,11.2242038 C9.08949814,11.2430487 8.9513488,11.2695431 8.81496815,11.3035669 L8.72426752,11.3319108 L8.72426752,49.086051 Z" id="Shape" fill="#222221"></path>
                <path d="M41.6089172,49.2957962 L41.6089172,31.0309554 C41.4938945,31.8517165 41.3253614,32.6640842 41.1043949,33.4628662 L41.1043949,48.7685987 C37.6315179,46.1087575 33.3701344,44.6843063 28.9958599,44.7210828 L28.8257962,44.7210828 C28.0831847,44.9194904 27.3178981,45.0952229 26.5242675,45.2426115 C25.9573885,45.3389809 25.4642038,45.4410191 24.9766879,45.5373885 C26.0455342,45.3482837 27.1281751,45.2477934 28.2135669,45.2369427 L28.9958599,45.2369427 C33.4350881,45.2015552 37.748938,46.708297 41.2007643,49.4998726 L41.2007643,49.4998726 L41.4955414,49.7379618 L41.614586,49.8343312 L41.614586,49.3071338 L41.6089172,49.2957962 Z" id="Shape" fill="#222221"></path>
                <path d="M41.6089172,23.3157325 C41.4994792,22.2134312 41.3310638,21.1177846 41.1043949,20.0335032 C38.9332484,9.60859873 32.3687898,6.86490446 27.8621019,6.25834395 C27.0975631,6.15281068 26.3266926,6.09977782 25.5549045,6.09961783 L24.9880255,6.09961783 C24.7726115,6.09961783 24.5571975,6.09961783 24.3304459,6.13929936 C22.006242,6.34904459 19.2682166,7.27305732 17.2217834,7.94764331 C16.7399363,8.10636943 16.2921019,8.25942675 15.9009554,8.37847134 L15.6628662,8.45216561 C14.670828,8.76961783 13.4690446,9.14375796 12.1595541,9.50089172 C11.8477707,9.58025478 11.5416561,9.66528662 11.2298726,9.73898089 L11.1505096,9.73898089 C10.4022293,9.92038217 9.65961783,10.0904459 8.92267516,10.2321656 L8.71859873,10.2718471 L8.71859873,11.2865605 L8.80929936,11.2582166 C8.94568001,11.2241928 9.08382935,11.1976984 9.22312102,11.1788535 C9.37224638,11.1693025 9.52183005,11.1693025 9.67095541,11.1788535 C10.8047134,11.1788535 12.1312102,11.706051 12.1312102,14.2229936 L12.1312102,43.4172611 C12.1312102,46.1892994 10.1528025,48.0259873 9.22312102,48.7289172 C9.07392256,48.8490576 8.91672305,48.9589078 8.75261146,49.057707 L8.71859873,49.057707 L8.71859873,49.057707 L8.71859873,49.8513376 L8.79796178,49.8513376 C10.0450955,49.6359236 11.9271338,49.1257325 13.7071338,48.6155414 L14.2740127,48.4511465 C15.1810191,48.186603 16.0804671,47.9163907 16.9723567,47.6405096 C19.5883445,46.784608 22.253778,46.0879606 24.9540127,45.5543949 C25.4415287,45.4580255 25.9517197,45.3559873 26.5015924,45.2596178 C27.2952229,45.1122293 28.0605096,44.9364968 28.803121,44.7380892 C35.3392357,42.9807643 39.5001274,39.1486624 41.0817197,33.4798726 C41.3026862,32.6810905 41.4712194,31.8687229 41.586242,31.0479618 C41.7364985,29.9755993 41.8103787,28.8939166 41.8073248,27.8110828 C41.8181693,26.3102246 41.7519462,24.8097993 41.6089172,23.3157325 Z M26.7566879,42.6916561 C23.4461146,43.7347134 21.3259873,44.1938854 19.8691083,44.1938854 C16.8816561,44.1938854 16.7569427,42.2721656 16.7569427,37.9242038 L16.7569427,10.033758 C18.9631114,8.99160027 21.3690856,8.44039234 23.8089172,8.41815287 C27.1255767,8.32980495 30.3128011,9.70671905 32.5218471,12.1822293 C35.1124841,15.1413376 36.4616561,19.7103822 36.5410191,25.7873248 C36.5410191,25.9687261 36.5410191,26.1501274 36.5410191,26.3542038 L36.5410191,26.4052229 C36.5523567,32.8846497 32.8789809,40.7699363 26.7566879,42.6916561 Z" id="Shape" fill="#C20E1A"></path>
                <path d="M80.1226752,48.9386624 C79.9696178,48.8819745 79.8165605,48.813949 79.6635032,48.7402548 C76.8007643,47.3343949 74.1704459,43.071465 71.1603185,38.2019745 C68.5016561,33.9163694 65.536879,29.1319108 61.6934395,24.8746497 L61.2002548,24.3474522 C60.7921019,23.9109554 60.383949,23.4801274 59.9587898,23.0606369 C63.1660843,19.6558133 66.6038182,16.4756727 70.2476433,13.5427389 L71.0356051,12.9248408 C73.2464331,11.3092357 75.2758599,10.4192357 76.7497452,10.4192357 L76.9538217,10.4192357 C77.3055911,10.4396318 77.6558055,10.4812789 78.0025478,10.543949 L78.0875796,10.543949 L78.0875796,9.86369427 L78.0308917,9.86369427 L77.9628662,9.86369427 C75.9844586,9.38751592 73.9947134,8.78095541 72.0389809,8.16305732 L70.5650955,7.71522293 L70.5650955,8.42949045 L70.6161146,8.42949045 C71.4267516,8.68458599 71.5457962,8.81496815 71.6535032,9.20044586 C71.6734245,9.73777218 71.3911221,10.2411021 70.9222293,10.5042675 C63.2750318,15.6855414 56.313758,23.5764968 55.2480255,24.8463057 L55.2480255,24.8463057 L55.2480255,12.1538854 C55.2480255,10.0450955 55.6788535,7.49980892 59.0574522,6.54178344 L59.1084713,6.54178344 L59.1084713,5.75382166 C54.613121,5.9522293 50.7640127,7.76057325 47.3514013,11.2582166 L47.3003822,11.3149045 L47.3003822,11.3149045 L47.3003822,11.3149045 L47.3003822,12.136879 L47.413758,12.0461783 C47.4647771,12.0064968 47.5328025,11.9384713 47.6235032,11.8591083 L47.8049045,11.6947134 C48.204646,11.2566858 48.7357928,10.960278 49.3184713,10.8500637 C50.163121,10.8500637 50.593949,12.0858599 50.593949,14.5291083 L50.593949,42.7313376 C50.593949,45.2085987 48.6835669,47.385414 47.7595541,48.2810828 C47.4761146,48.5588535 47.2833758,48.7175796 47.277707,48.7232484 L47.277707,48.7232484 L47.277707,49.8003185 L47.3967516,49.703949 L47.6915287,49.4658599 C50.8941222,46.8839001 54.8446168,45.4047013 58.955414,45.2482803 L59.0404459,45.2482803 L59.1084713,45.2482803 L59.1084713,44.4659873 L59.0347771,44.4659873 C57.861256,44.5732573 56.7191753,44.0486342 56.0359873,43.0884713 C55.4767719,42.1843084 55.1967592,41.135247 55.2310191,40.0726752 L55.2310191,28.264586 C55.3217197,28.1625478 55.7978981,27.6410191 56.4668153,26.8530573 C59.0121019,28.1058599 61.2569427,31.4391083 63.836242,35.2938854 C64.3124204,35.9968153 64.7999363,36.7224204 65.3044586,37.4480255 C66.0187261,38.485414 66.7783439,39.6588535 67.5719745,40.9003185 C68.905656,43.0531366 70.351292,45.1345498 71.9029299,47.1359873 C72.1296815,47.4080892 72.3450955,47.6518471 72.5435032,47.8502548 L72.5718471,47.8502548 L72.7192357,47.8956051 C75.0514729,48.6369918 77.4203941,49.2576038 79.8165605,49.7549682 L80.1170064,49.8116561 L80.1170064,48.9613376 L80.1226752,48.9386624 Z" id="Shape" fill="#C20E1A"></path>
            </g>
        </g>
    </g>
</svg>