<svg xmlns="http://www.w3.org/2000/svg" width="239" height="54.156" viewBox="0 0 239 54.156">
  <g id="Group_88" data-name="Group 88" transform="translate(-1.76)" style="isolation: isolate">
    <path id="Path_51" data-name="Path 51" d="M308.736,120.295v-6.7h2.508a3.529,3.529,0,0,1,1.465.278,2.04,2.04,0,0,1,.938.785,2.426,2.426,0,0,1,0,2.46,2.119,2.119,0,0,1-.938.785,3.528,3.528,0,0,1-1.465.278h-2.116l.316-.335v2.451Zm.708-2.393-.316-.345h2.1a2.327,2.327,0,0,0,1.522-.431,1.723,1.723,0,0,0,0-2.479,2.292,2.292,0,0,0-1.522-.44h-2.1l.316-.335Zm7.946,2.441a2.647,2.647,0,0,1-1.311-.325,2.486,2.486,0,0,1-.909-.909,2.624,2.624,0,0,1-.335-1.331,2.591,2.591,0,0,1,.335-1.331,2.414,2.414,0,0,1,.909-.9,2.825,2.825,0,0,1,2.633,0,2.327,2.327,0,0,1,.909.9,2.593,2.593,0,0,1,.335,1.331,2.626,2.626,0,0,1-.335,1.331,2.394,2.394,0,0,1-.909.909A2.667,2.667,0,0,1,317.391,120.343Zm0-.6a1.923,1.923,0,0,0,.967-.239,1.761,1.761,0,0,0,.661-.689,2.1,2.1,0,0,0,.249-1.034,2.067,2.067,0,0,0-.249-1.034,1.694,1.694,0,0,0-.661-.68,1.965,1.965,0,0,0-1.914,0,1.759,1.759,0,0,0-.67.68,2.067,2.067,0,0,0-.249,1.034,2.1,2.1,0,0,0,.249,1.034,1.83,1.83,0,0,0,.67.689A1.884,1.884,0,0,0,317.391,119.74Zm4.837.555-1.9-5.026h.651l1.723,4.662h-.3l1.771-4.662h.584l1.752,4.662h-.3l1.752-4.662h.622l-1.9,5.026h-.641l-1.685-4.384h.2l-1.694,4.384Zm9.384.048a2.822,2.822,0,0,1-1.378-.325,2.445,2.445,0,0,1-.929-.909,2.625,2.625,0,0,1-.335-1.331,2.7,2.7,0,0,1,.316-1.321,2.385,2.385,0,0,1,.881-.9,2.429,2.429,0,0,1,1.264-.335,2.4,2.4,0,0,1,1.254.325,2.232,2.232,0,0,1,.871.9,2.716,2.716,0,0,1,.316,1.331.643.643,0,0,1-.01.105v.105h-4.375v-.507H333.5l-.268.2a1.922,1.922,0,0,0-.239-.967,1.683,1.683,0,0,0-.632-.67,1.78,1.78,0,0,0-.929-.239,1.813,1.813,0,0,0-.928.239,1.664,1.664,0,0,0-.641.67,2.064,2.064,0,0,0-.23.986v.105a2.026,2.026,0,0,0,.249,1.015,1.859,1.859,0,0,0,.708.68,2.226,2.226,0,0,0,1.043.239,2.2,2.2,0,0,0,.852-.163,1.773,1.773,0,0,0,.689-.5l.383.44a2.149,2.149,0,0,1-.842.613A2.8,2.8,0,0,1,331.611,120.343Zm3.643-.048v-5.026h.651v1.369l-.067-.239a1.633,1.633,0,0,1,.708-.871,2.316,2.316,0,0,1,1.235-.306v.66H337.7a.317.317,0,0,0-.077-.01,1.608,1.608,0,0,0-1.245.488,1.924,1.924,0,0,0-.45,1.369v2.565Zm3.767,0v-5.026h.68v5.026Zm.345-6.136a.481.481,0,0,1-.354-.144.47.47,0,0,1-.144-.345.439.439,0,0,1,.144-.335.481.481,0,0,1,.354-.144.5.5,0,0,1,.354.134.439.439,0,0,1,.144.335.481.481,0,0,1-.144.354A.462.462,0,0,1,339.366,114.159Zm4.792,1.063a2.289,2.289,0,0,1,1.072.239,1.626,1.626,0,0,1,.728.708,2.445,2.445,0,0,1,.268,1.206v2.92h-.68v-2.853a1.624,1.624,0,0,0-.4-1.2,1.461,1.461,0,0,0-1.11-.412,1.923,1.923,0,0,0-.938.22,1.477,1.477,0,0,0-.613.622,2.083,2.083,0,0,0-.211.976v2.642h-.68v-5.026h.651v1.378l-.105-.258a1.8,1.8,0,0,1,.766-.852A2.392,2.392,0,0,1,344.158,115.221Zm6.048,6.979a4.33,4.33,0,0,1-1.321-.2,2.606,2.606,0,0,1-1.024-.574l.345-.517a2.573,2.573,0,0,0,.871.5,3.223,3.223,0,0,0,1.11.191,1.921,1.921,0,0,0,1.407-.45,1.857,1.857,0,0,0,.45-1.378v-1.254l.1-.862-.067-.862v-1.522h.651v4.413a2.507,2.507,0,0,1-.641,1.9A2.6,2.6,0,0,1,350.206,122.2Zm-.124-2.1a2.7,2.7,0,0,1-1.292-.306,2.386,2.386,0,0,1-.909-.871,2.47,2.47,0,0,1-.325-1.273,2.419,2.419,0,0,1,.325-1.264,2.316,2.316,0,0,1,.909-.862,2.7,2.7,0,0,1,1.292-.306,2.583,2.583,0,0,1,1.206.278,2.073,2.073,0,0,1,.852.823,2.961,2.961,0,0,1,0,2.661,2.137,2.137,0,0,1-.852.833A2.513,2.513,0,0,1,350.081,120.1Zm.067-.6a2.062,2.062,0,0,0,.986-.23,1.8,1.8,0,0,0,.68-.651,1.864,1.864,0,0,0,.249-.967,1.813,1.813,0,0,0-.249-.957,1.73,1.73,0,0,0-.68-.641,2,2,0,0,0-.986-.239,2.031,2.031,0,0,0-.986.239,1.731,1.731,0,0,0-.68.641,1.871,1.871,0,0,0-.239.957,1.923,1.923,0,0,0,.239.967,1.8,1.8,0,0,0,.68.651A2.1,2.1,0,0,0,350.148,119.5Zm8.561.842a1.334,1.334,0,0,1-1.474-1.465v-4.719h.68v4.681a.967.967,0,0,0,.22.68.86.86,0,0,0,.651.239,1.1,1.1,0,0,0,.747-.258l.239.488a1.252,1.252,0,0,1-.488.268A1.926,1.926,0,0,1,358.709,120.343Zm-2.374-4.509v-.565h3.111v.565Zm7.239-.613a2.288,2.288,0,0,1,1.072.239,1.625,1.625,0,0,1,.728.708,2.445,2.445,0,0,1,.268,1.206v2.92h-.68v-2.853a1.624,1.624,0,0,0-.4-1.2,1.461,1.461,0,0,0-1.11-.412,1.923,1.923,0,0,0-.938.22,1.478,1.478,0,0,0-.613.622,2.082,2.082,0,0,0-.211.976v2.642h-.68v-7.1h.68v3.456l-.134-.258a1.8,1.8,0,0,1,.766-.852A2.392,2.392,0,0,1,363.574,115.221Zm6.039,5.121a2.821,2.821,0,0,1-1.379-.325,2.444,2.444,0,0,1-.929-.909,2.625,2.625,0,0,1-.335-1.331,2.7,2.7,0,0,1,.316-1.321,2.385,2.385,0,0,1,.881-.9,2.429,2.429,0,0,1,1.264-.335,2.4,2.4,0,0,1,1.254.325,2.233,2.233,0,0,1,.871.9,2.716,2.716,0,0,1,.316,1.331.648.648,0,0,1-.01.105v.105h-4.375v-.507H371.5l-.268.2a1.922,1.922,0,0,0-.239-.967,1.684,1.684,0,0,0-.632-.67,1.78,1.78,0,0,0-.929-.239,1.814,1.814,0,0,0-.929.239,1.665,1.665,0,0,0-.641.67,2.063,2.063,0,0,0-.23.986v.105a2.026,2.026,0,0,0,.249,1.015,1.859,1.859,0,0,0,.708.68,2.226,2.226,0,0,0,1.044.239,2.2,2.2,0,0,0,.852-.163,1.772,1.772,0,0,0,.689-.5l.383.44a2.15,2.15,0,0,1-.842.613A2.8,2.8,0,0,1,369.613,120.343Zm8.742,0a2.356,2.356,0,0,1-1.177-.3,2.258,2.258,0,0,1-.842-.871,2.937,2.937,0,0,1-.306-1.4,2.88,2.88,0,0,1,.306-1.388,2.112,2.112,0,0,1,.833-.871,2.375,2.375,0,0,1,1.187-.3,2.522,2.522,0,0,1,1.283.325,2.26,2.26,0,0,1,.9.9,2.9,2.9,0,0,1,0,2.671,2.343,2.343,0,0,1-.9.9A2.522,2.522,0,0,1,378.355,120.343Zm-2.594,1.809v-6.883h.651v1.512l-.067,1.005.1,1.015v3.35Zm2.546-2.412a1.9,1.9,0,0,0,.957-.239,1.829,1.829,0,0,0,.67-.689,2.1,2.1,0,0,0,.249-1.034,2.046,2.046,0,0,0-.249-1.024,1.811,1.811,0,0,0-1.627-.938,1.9,1.9,0,0,0-.967.249,1.83,1.83,0,0,0-.67.689,2.112,2.112,0,0,0-.239,1.024,2.168,2.168,0,0,0,.239,1.034,1.83,1.83,0,0,0,.67.689A1.956,1.956,0,0,0,378.307,119.74Zm6.076.6a2.821,2.821,0,0,1-1.378-.325,2.445,2.445,0,0,1-.929-.909,2.626,2.626,0,0,1-.335-1.331,2.7,2.7,0,0,1,.316-1.321,2.385,2.385,0,0,1,.881-.9,2.43,2.43,0,0,1,1.264-.335,2.4,2.4,0,0,1,1.254.325,2.233,2.233,0,0,1,.871.9,2.717,2.717,0,0,1,.316,1.331.648.648,0,0,1-.01.105v.105h-4.375v-.507h4.011l-.268.2a1.923,1.923,0,0,0-.239-.967,1.684,1.684,0,0,0-.632-.67,1.781,1.781,0,0,0-.929-.239,1.813,1.813,0,0,0-.929.239,1.663,1.663,0,0,0-.641.67,2.063,2.063,0,0,0-.23.986v.105a2.026,2.026,0,0,0,.249,1.015,1.86,1.86,0,0,0,.708.68,2.225,2.225,0,0,0,1.043.239,2.2,2.2,0,0,0,.852-.163,1.771,1.771,0,0,0,.689-.5l.383.44a2.149,2.149,0,0,1-.842.613A2.8,2.8,0,0,1,384.383,120.343Zm5.691,0a2.647,2.647,0,0,1-1.311-.325,2.487,2.487,0,0,1-.91-.909,2.626,2.626,0,0,1-.335-1.331,2.592,2.592,0,0,1,.335-1.331,2.414,2.414,0,0,1,.91-.9,2.825,2.825,0,0,1,2.633,0,2.327,2.327,0,0,1,.909.9,2.592,2.592,0,0,1,.335,1.331,2.625,2.625,0,0,1-.335,1.331,2.394,2.394,0,0,1-.909.909A2.668,2.668,0,0,1,390.074,120.343Zm0-.6a1.923,1.923,0,0,0,.967-.239,1.76,1.76,0,0,0,.661-.689,2.1,2.1,0,0,0,.249-1.034,2.065,2.065,0,0,0-.249-1.034,1.694,1.694,0,0,0-.661-.68,1.965,1.965,0,0,0-1.914,0,1.759,1.759,0,0,0-.67.68,2.067,2.067,0,0,0-.249,1.034,2.1,2.1,0,0,0,.249,1.034,1.829,1.829,0,0,0,.67.689A1.884,1.884,0,0,0,390.074,119.74Zm6.547.6a2.356,2.356,0,0,1-1.177-.3,2.258,2.258,0,0,1-.842-.871,2.936,2.936,0,0,1-.306-1.4,2.879,2.879,0,0,1,.306-1.388,2.112,2.112,0,0,1,.833-.871,2.375,2.375,0,0,1,1.187-.3,2.523,2.523,0,0,1,1.283.325,2.261,2.261,0,0,1,.9.9,2.9,2.9,0,0,1,0,2.671,2.344,2.344,0,0,1-.9.9A2.523,2.523,0,0,1,396.622,120.343Zm-2.594,1.809v-6.883h.651v1.512l-.067,1.005.1,1.015v3.35Zm2.546-2.412a1.9,1.9,0,0,0,.957-.239,1.829,1.829,0,0,0,.67-.689,2.1,2.1,0,0,0,.249-1.034,2.046,2.046,0,0,0-.249-1.024,1.811,1.811,0,0,0-1.627-.938,1.9,1.9,0,0,0-.967.249,1.83,1.83,0,0,0-.67.689,2.113,2.113,0,0,0-.239,1.024,2.169,2.169,0,0,0,.239,1.034,1.83,1.83,0,0,0,.67.689A1.956,1.956,0,0,0,396.574,119.74Zm3.942.555v-7.1h.68v7.1Zm4.705.048a2.821,2.821,0,0,1-1.378-.325,2.445,2.445,0,0,1-.929-.909,2.626,2.626,0,0,1-.335-1.331,2.7,2.7,0,0,1,.316-1.321,2.385,2.385,0,0,1,.881-.9,2.43,2.43,0,0,1,1.264-.335,2.4,2.4,0,0,1,1.254.325,2.233,2.233,0,0,1,.871.9,2.717,2.717,0,0,1,.316,1.331.635.635,0,0,1-.01.105v.105H403.1v-.507h4.011l-.268.2a1.923,1.923,0,0,0-.239-.967,1.684,1.684,0,0,0-.632-.67,1.78,1.78,0,0,0-.929-.239,1.813,1.813,0,0,0-.929.239,1.663,1.663,0,0,0-.641.67,2.063,2.063,0,0,0-.23.986v.105a2.026,2.026,0,0,0,.249,1.015,1.859,1.859,0,0,0,.708.68,2.226,2.226,0,0,0,1.043.239,2.2,2.2,0,0,0,.852-.163,1.772,1.772,0,0,0,.689-.5l.383.44a2.149,2.149,0,0,1-.842.613A2.8,2.8,0,0,1,405.221,120.343Z" transform="translate(-184.534 -68.044)" fill="#FFF"/>
    <circle id="Ellipse_18" data-name="Ellipse 18" cx="2.991" cy="2.991" r="2.991" transform="translate(2.653)" fill="#fff"/>
    <circle id="Ellipse_19" data-name="Ellipse 19" cx="2.991" cy="2.991" r="2.991" transform="translate(16.215)" fill="#fff"/>
    <circle id="Ellipse_20" data-name="Ellipse 20" cx="2.991" cy="2.991" r="2.991" transform="translate(29.776)" fill="#fff"/>
    <path id="Path_52" data-name="Path 52" d="M544.64,52.336V30h10.147a14.025,14.025,0,0,1,6.414,1.4,10.486,10.486,0,0,1,4.339,3.861,10.867,10.867,0,0,1,1.564,5.9,10.969,10.969,0,0,1-1.564,5.9,10.706,10.706,0,0,1-4.339,3.893,14.3,14.3,0,0,1-6.414,1.372Zm5.169-4.244h4.723a8.4,8.4,0,0,0,3.861-.83,6.11,6.11,0,0,0,2.553-2.425,7.07,7.07,0,0,0,.925-3.67,6.963,6.963,0,0,0-.925-3.67,5.912,5.912,0,0,0-2.553-2.393,8.144,8.144,0,0,0-3.861-.862h-4.723Z" transform="translate(-326.344 -18.034)" fill="#fff"/>
    <path id="Path_53" data-name="Path 53" d="M453.067,52.336,445.76,30h5.361l6.35,19.784h-2.68L461.427,30h4.786L472.6,49.784h-2.585L476.52,30h4.946l-7.307,22.336h-5.552l-5.648-17.359h1.468l-5.808,17.359Z" transform="translate(-266.904 -18.034)" fill="#fff"/>
    <path id="Path_54" data-name="Path 54" d="M9.067,52.336,1.76,30H7.121l6.35,19.784H10.79L17.427,30h4.786L28.6,49.784H26.011L32.52,30h4.946L30.159,52.336H24.607L18.959,34.978h1.468L14.619,52.336Z" transform="translate(0 -18.034)" fill="#fff"/>
    <path id="Path_55" data-name="Path 55" d="M391.373,52.142a13.712,13.712,0,0,1-4.914-.862,11.8,11.8,0,0,1-3.893-2.425,11.388,11.388,0,0,1-2.553-3.67,12.262,12.262,0,0,1,0-9.19,11.157,11.157,0,0,1,2.585-3.67,11.8,11.8,0,0,1,3.893-2.425,13.364,13.364,0,0,1,4.85-.862,13.2,13.2,0,0,1,4.85.862,11.449,11.449,0,0,1,3.861,2.425,11.137,11.137,0,0,1,3.51,8.264,11.518,11.518,0,0,1-.925,4.627,11.158,11.158,0,0,1-2.585,3.67,11.715,11.715,0,0,1-3.861,2.393A13.112,13.112,0,0,1,391.373,52.142Zm-.032-4.4a7.163,7.163,0,0,0,2.744-.511,6.581,6.581,0,0,0,2.234-1.468,6.508,6.508,0,0,0,1.468-2.266,8.044,8.044,0,0,0,0-5.807,6.508,6.508,0,0,0-1.468-2.266,6.254,6.254,0,0,0-2.2-1.468,7.8,7.8,0,0,0-5.552,0,6.659,6.659,0,0,0-2.2,1.468,6.906,6.906,0,0,0-1.5,2.266,7.927,7.927,0,0,0-.511,2.9,8.091,8.091,0,0,0,.511,2.9,7.174,7.174,0,0,0,1.468,2.266,6.579,6.579,0,0,0,2.234,1.468A7.406,7.406,0,0,0,391.341,47.739Z" transform="translate(-226.844 -17.457)" fill="#fff"/>
    <path id="Path_56" data-name="Path 56" d="M323.64,52.336V30h9.668a12.383,12.383,0,0,1,5.169.989,7.469,7.469,0,0,1,3.351,2.776,7.8,7.8,0,0,1,1.181,4.34,7.737,7.737,0,0,1-1.181,4.308,7.544,7.544,0,0,1-3.351,2.744,12.742,12.742,0,0,1-5.169.957h-6.8l2.3-2.266v8.488Zm14.2,0-5.584-8.1h5.52l5.648,8.1Zm-9.03-7.913L326.512,42h6.51a5.347,5.347,0,0,0,3.574-1.021,3.653,3.653,0,0,0,1.181-2.872,3.594,3.594,0,0,0-1.181-2.872,5.347,5.347,0,0,0-3.574-1.021h-6.51l2.3-2.457Z" transform="translate(-193.493 -18.034)" fill="#fff"/>
    <path id="Path_57" data-name="Path 57" d="M273.214,52.142a13.729,13.729,0,0,1-4.818-.83,11.518,11.518,0,0,1-3.829-2.425,11.388,11.388,0,0,1-2.553-3.67,12.427,12.427,0,0,1,0-9.254,11.119,11.119,0,0,1,6.414-6.063,13.111,13.111,0,0,1,4.818-.862,12.9,12.9,0,0,1,5.233,1.021A10.06,10.06,0,0,1,282.435,33l-3.319,3.063a7.568,7.568,0,0,0-2.553-1.946,7.02,7.02,0,0,0-3.063-.67,7.837,7.837,0,0,0-2.872.511,6.509,6.509,0,0,0-2.265,1.468,6.906,6.906,0,0,0-1.5,2.266,8.512,8.512,0,0,0,0,5.807,6.907,6.907,0,0,0,1.5,2.266,6.509,6.509,0,0,0,2.265,1.468,7.836,7.836,0,0,0,2.872.511,7.315,7.315,0,0,0,3.063-.638,7.787,7.787,0,0,0,2.553-2.01l3.319,3.063a10.345,10.345,0,0,1-3.957,2.968A12.987,12.987,0,0,1,273.214,52.142Z" transform="translate(-155.91 -17.457)" fill="#fff"/>
    <path id="Path_58" data-name="Path 58" d="M162.468,52.336V34.212H155.32V30h19.465v4.212h-7.148V52.336Z" transform="translate(-92.31 -18.034)" fill="#fff"/>
    <path id="Path_59" data-name="Path 59" d="M215.468,52.336V34.212H208.32V30h19.465v4.212h-7.148V52.336Z" transform="translate(-124.17 -18.034)" fill="#fff"/>
    <path id="Path_60" data-name="Path 60" d="M92.28,52.336,102.236,30h5.105l9.988,22.336H111.9l-8.169-19.72h2.042l-8.2,19.72Zm4.978-4.786,1.372-3.925h11.487l1.4,3.925Z" transform="translate(-54.415 -18.034)" fill="#fff"/>
  </g>
</svg>
