<?xml version="1.0" standalone="no"?>
<!DOCTYPE svg PUBLIC "-//W3C//DTD SVG 20010904//EN"
 "http://www.w3.org/TR/2001/REC-SVG-20010904/DTD/svg10.dtd">
<svg version="1.0" xmlns="http://www.w3.org/2000/svg"
 width="512.000000pt" height="512.000000pt" viewBox="0 0 512.000000 512.000000"
 preserveAspectRatio="xMidYMid meet">
<metadata>
Created by potrace 1.14, written by Peter Selinger 2001-2017
</metadata>
<g transform="translate(0.000000,512.000000) scale(0.100000,-0.100000)"
fill="#000000" stroke="none">
<path d="M2418 4845 c-2 -2 -37 -6 -78 -9 -41 -3 -88 -8 -105 -11 -32 -5 -84
-14 -125 -21 -59 -11 -254 -66 -329 -94 -602 -222 -1084 -679 -1325 -1255 -21
-49 -41 -99 -46 -110 -26 -63 -93 -315 -104 -390 -3 -22 -8 -50 -10 -63 -20
-93 -27 -408 -13 -559 32 -347 167 -727 365 -1028 176 -268 432 -519 695 -681
380 -235 776 -349 1217 -348 462 0 858 117 1255 372 162 104 401 318 511 457
21 28 42 52 45 55 10 8 156 228 171 257 8 16 28 53 45 83 66 117 172 398 197
522 51 246 60 332 60 538 0 135 -7 261 -19 320 -3 13 -7 40 -10 60 -42 280
-170 610 -339 870 -167 257 -449 535 -696 685 -120 73 -178 103 -321 168 -114
51 -329 119 -452 141 -93 17 -148 26 -197 31 -57 7 -386 15 -392 10z m914
-584 c3 -14 2 -362 -1 -414 -1 -17 -39 -17 -773 -15 l-772 3 -1 200 c0 110 1
209 3 220 4 21 6 21 772 21 691 0 769 -1 772 -15z m793 -549 c68 -31 121 -85
145 -149 18 -48 20 -78 20 -276 0 -261 14 -222 -135 -377 -224 -232 -574 -425
-945 -520 -47 -12 -96 -24 -110 -26 -14 -3 -38 -7 -55 -11 -31 -6 -36 -7 -115
-18 -25 -4 -56 -8 -70 -11 -14 -2 -76 -7 -137 -10 -106 -6 -113 -5 -114 12 0
11 0 63 1 118 1 80 -2 102 -16 117 -38 42 -87 3 -84 -68 1 -21 2 -71 1 -111
l-1 -74 -108 6 c-119 7 -171 12 -247 26 -27 6 -68 13 -90 16 -67 10 -254 61
-350 94 -339 120 -605 294 -812 530 l-75 84 4 236 3 235 30 54 c38 68 96 116
163 133 43 11 333 13 1550 13 l1497 -1 50 -22z m-3049 -1028 c199 -149 384
-247 628 -331 100 -34 275 -82 331 -89 17 -3 41 -7 55 -10 14 -3 41 -8 60 -10
19 -2 44 -6 55 -8 24 -6 157 -17 240 -20 l60 -2 5 -88 c4 -62 9 -89 20 -96 22
-14 38 -12 58 8 15 15 18 33 17 95 -1 48 3 77 9 78 6 1 31 3 56 4 329 21 550
65 809 161 104 39 282 122 346 162 180 113 316 219 406 317 23 25 44 45 48 45
3 0 6 -307 6 -682 -1 -665 -2 -684 -21 -728 -28 -61 -92 -124 -151 -146 -46
-18 -110 -19 -1558 -19 -1201 0 -1518 3 -1547 13 -54 19 -127 89 -154 147
l-23 50 -1 687 0 686 83 -82 c46 -45 119 -109 163 -142z"/>
</g>
</svg>
